<svg display="none" xmlns="http://www.w3.org/2000/svg" xmlns:xlink="http://www.w3.org/1999/xlink">
    <!-- Icon logo -->
    <symbol id="icon-logo" viewBox="0 0 173 56" fill="none">
        <rect rx="0.000000" width="172.000000" height="55.000000"
            transform="translate(0.500000 0.500000)" fill="#FFFFFF" fill-opacity="0" />
        <g clip-path="url(#clip5_8)">
            <path id="Vector"
                d="M54.29 3.08C52.78 6.09 49.04 14.73 47.84 26.13C47.37 30.01 47.92 32.31 46.41 33.18L46.57 33.66C49.04 32.71 51.51 32 53.97 31.28L53.89 30.73C52.86 30.65 53.1 26.61 53.1 24.79C53.1 22.81 53.34 20.19 56.6 18.77C57.16 18.53 57.79 18.29 58.51 18.21L58.51 26.77C58.51 28.59 58.35 29.3 57.4 29.86L57.56 30.49C60.02 29.94 62.49 29.38 65.04 28.91L64.96 28.27C63.93 28.27 63.85 27.24 63.85 25.74C63.85 19.8 63.85 13.94 63.85 8C63.93 4.11 63.29 1.66 66.31 0.95L66.31 0.31C61.7 0.31 57.08 0.31 52.54 0.31L52.54 0.95C53.73 1.02 54.61 1.9 54.29 3.08ZM58.43 5.94C58.43 8.63 58.43 11.16 58.43 13.86C57.4 14.01 55.57 14.57 54.61 15.12C55.49 12.03 56.76 8.63 58.43 5.94Z"
                fill="#D52A20" fill-opacity="1.000000" fill-rule="nonzero" />
            <path id="Vector"
                d="M103.73 3.8L103.73 24.87C103.73 25.66 103.49 27.16 102.62 27.4L102.54 28.03C107.95 28.75 112.89 29.62 117.82 30.97L117.98 30.41C117.9 29.22 117.5 27.96 117.27 26.69C116.79 27.4 114.88 27.48 113.44 27.08C110.02 26.13 109.15 25.42 108.83 23.76C108.83 19.24 108.83 14.33 108.83 9.82C110.18 9.02 112.09 9.02 115.28 10.85C115.28 9.26 115.28 7.76 115.28 6.17L108.83 6.17L108.83 3.8C110.66 3.08 113.52 3.32 116.39 4.27C116.79 3.08 117.43 2.13 117.82 0.95L117.82 0.31C112.49 0.31 107.23 0.31 101.9 0.31L101.9 0.95C103.41 1.5 103.65 2.21 103.73 3.8Z"
                fill="#D52A20" fill-opacity="1.000000" fill-rule="nonzero" />
            <path id="Vector"
                d="M87.25 3.8L87.25 23.84C87.25 25.26 87.09 26.13 86.3 26.45L86.3 27.08C91.31 27.08 96.41 27.32 101.42 27.88L101.5 27.24L100.39 23.76C98.64 25.74 92.35 24.79 92.27 21.78C92.27 17.26 92.27 14.25 92.27 9.74C93.62 8.95 95.53 8.95 98.72 10.77C98.72 9.18 98.72 7.68 98.72 6.09L92.35 6.09L92.35 3.72C94.81 2.93 97.36 3.48 99.91 4.19C100.31 3.01 100.94 2.05 101.34 0.87L101.34 0.31C96.01 0.31 90.67 0.31 85.42 0.31L85.42 0.95C87.01 1.5 87.17 2.21 87.25 3.8Z"
                fill="#D52A20" fill-opacity="1.000000" fill-rule="nonzero" />
            <path id="Vector"
                d="M120.21 3.8C120.21 11.88 120.21 19.96 120.21 28.03C120.21 29.22 120.05 30.57 118.78 30.57L118.54 31.12C123.63 32.47 128.89 34.37 133.67 36.59C135.1 37.06 135.1 34.37 134.94 33.1C133.98 17.02 131.04 15.44 128.01 11.08C132.79 6.25 132.47 2.13 131.04 0.79C130.24 0.15 129.13 0.31 127.93 0.31C124.67 0.31 121.72 0.31 118.38 0.31L118.38 0.95C120.13 1.34 120.21 2.29 120.21 3.8ZM125.31 4.03C125.47 2.69 128.17 2.53 128.65 4.03C128.81 6.81 127.38 9.34 125.31 10.85C125.31 8.63 125.31 6.33 125.31 4.03ZM125.31 13.54C125.86 13.22 126.02 12.91 126.5 12.59C129.84 16.79 130.32 22.25 130.56 27.64C130.64 28.83 131.04 30.81 129.61 31.12C128.49 31.04 125.47 30.57 125.31 29.46C125.31 24.15 125.31 18.77 125.31 13.54Z"
                fill="#D52A20" fill-opacity="1.000000" fill-rule="nonzero" />
            <path id="Vector"
                d="M136.37 3.8L136.37 33.66C136.37 35.64 136.06 36.75 134.94 36.51L134.7 37.06C139 39.12 143.7 41.66 147.36 44.83C149.83 46.17 151.5 43.72 151.5 39.04C151.5 30.89 148.95 24.63 144.41 18.05C142.82 15.76 141.55 14.17 141.47 13.3C141.47 6.97 141.47 8.95 141.47 3.88C141.63 2.13 142.74 1.34 144.41 0.95C144.49 0.95 144.49 0.95 144.57 0.95C144.57 0.71 144.57 0.55 144.57 0.31C132.07 0.31 144.73 0.31 132.23 0.31C132.23 1.18 132.07 0.47 133.11 4.27C133.67 3.56 135.34 3.16 136.37 3.8ZM141.47 17.26C142.66 19.08 143.62 20.91 144.41 22.73C147.44 29.94 147.36 36.75 147.36 38.25C147.36 39.12 147.12 39.36 146.48 39.44C145.53 39.44 142.74 37.94 141.55 36.27C141.47 30.57 141.47 22.17 141.47 17.26Z"
                fill="#D52A20" fill-opacity="1.000000" fill-rule="nonzero" />
            <path id="Vector"
                d="M65.76 28.11L65.91 28.75C68.7 28.27 71.49 27.88 74.43 27.64L74.35 27.01C73.48 26.77 73.72 25.34 73.72 24.47C73.72 18.93 74.19 15.28 75.71 11.64C76.98 15.2 77.54 18.85 77.7 24.15C77.7 25.02 77.86 26.45 76.98 26.85L76.98 27.48C79.61 27.24 82.32 27.16 85.02 27.08L85.02 26.45C83.99 26.29 83.91 25.02 83.51 23.92C81.6 15.84 81.2 11.88 79.29 8.15C82.71 3.64 81.12 1.5 84.62 0.95L84.62 0.31C82.39 0.31 79.13 0.31 76.9 0.31L76.9 0.95C77.38 0.95 77.7 1.18 77.78 1.98C77.7 4.19 77.38 5.22 75.71 6.73C74.04 5.22 73.72 4.19 73.64 1.98C73.64 1.18 74.12 1.1 74.51 0.95L74.51 0.31C72.28 0.31 69.02 0.31 66.71 0.31L66.71 0.95C67.91 1.18 68.94 1.82 69.5 3.4C70.05 5.22 71.01 6.81 72.05 8.15C70.45 11.56 69.9 16 67.51 25.26C67.11 26.69 67.11 27.56 65.76 28.11Z"
                fill="#D52A20" fill-opacity="1.000000" fill-rule="nonzero" />
            <path id="Vector"
                d="M26.27 49.82C26.11 49.34 26.03 48.79 26.03 48.31C26.03 44.99 29.45 42.69 32.8 42.69C34.79 42.69 36.78 43.24 38.05 44.83C51.11 37.78 64.72 33.02 86.38 33.02C101.1 33.02 115.83 35.72 127.46 41.1C139.48 47.04 147.84 55.28 158.11 55.28C167.98 55.28 172.92 47.76 172.92 40.31C172.84 31.76 166.23 25.82 159.86 25.82C157.23 25.82 153.25 27.16 153.25 29.7C153.25 32.55 157.63 36.35 157.63 38.65C157.63 39.84 157.07 40.63 156.52 41.1C155.8 41.82 154.76 42.93 154.76 43.88C154.76 44.59 155.48 45.3 156.28 45.3C156.75 45.3 157.39 45.06 157.87 44.19C158.9 42.53 159.22 41.1 159.22 39.92C159.22 38.01 158.43 36.59 158.43 35.24C158.43 32.95 160.97 32.07 162.64 32.07C167.34 32.07 169.01 38.97 169.01 41.18C169.01 47.52 163.2 52.03 156.67 52.03C149.59 52.03 140.35 43.4 127.78 37.94C115.43 32.55 101.18 30.01 88.53 30.01C71.73 30.01 58.03 32.23 42.99 38.97C41.16 39.68 39.16 40.23 37.33 40.23C34.47 40.23 32.08 38.89 31.6 34.77C31.6 32.39 31.6 29.3 31.6 25.98C31.6 21.14 31.6 15.92 31.52 12.43C32.4 15.44 34.71 23.04 35.58 26.13C36.94 21.54 38.05 16.95 39.88 12.43L39.88 29.78C39.64 32.71 38.37 35.32 37.33 37.06L37.49 37.62C40.04 36.19 42.99 34.93 46.09 33.74L45.93 33.26C45.3 33.02 44.9 32.71 44.9 30.41C44.9 27.16 44.9 6.89 44.9 3.72C44.98 1.98 46.57 1.26 48.72 0.79L48.72 0.31C44.98 0.31 41.79 0.31 37.97 0.31L37.97 0.95C39.09 1.26 39.48 1.74 39.48 2.29C39.48 2.69 39.32 3.24 39.09 3.8C37.89 7.12 36.78 10.45 35.58 13.78C34.71 10.45 33.83 7.2 32.96 3.88C32.8 3.24 32.72 2.77 32.72 2.37C32.72 1.66 33.11 1.34 33.99 0.95L33.99 0.31L22.45 0.31L22.45 0.95C24.04 1.34 25.71 2.13 26.59 3.24C26.75 3.48 26.9 3.8 26.9 4.11C26.98 4.99 26.98 6.09 26.98 7.36C26.98 20.19 23.56 52.35 10.9 52.35C7 52.35 3.02 48.95 3.02 44.03C3.02 38.81 6.92 35.32 9.71 34.77C11.06 34.45 12.34 35.48 12.34 36.83C12.34 38.81 11.14 41.9 10.34 45.3C10.27 45.62 10.19 46.01 10.19 46.41C10.19 47.92 10.9 49.34 12.26 49.34C13.13 49.34 13.77 48.95 13.77 48C13.77 47.2 13.29 46.25 12.34 45.7C12.1 45.22 12.02 44.75 12.02 44.27C12.02 42.77 13.05 41.18 15.12 39.36C18.07 37.06 19.58 34.05 19.58 31.84C19.58 30.09 18.62 28.83 16.55 28.83C12.97 28.75 0 34.05 0 44.59C0 51.24 5.17 56 11.62 56C16.87 56 22.21 53.14 26.27 49.82Z"
                fill="#D52A20" fill-opacity="1.000000" fill-rule="nonzero" />
        </g>
    </symbol>

    <!-- Icon arrow right -->
    <symbol id="icon-arrow-right"  viewBox="0 0 24 24" fill="none">
        <defs>
            <clipPath id="clip5_139">
                <rect id="akar-icons:chevron-left" rx="0.000000" width="23.000000"
                    height="23.000000" transform="matrix(-1 0 0 1 24.5 0.5)" fill="white"
                    fill-opacity="0" />
            </clipPath>
        </defs>
        <rect id="akar-icons:chevron-left" rx="0.000000" width="23.000000" height="23.000000"
            transform="matrix(-1 0 0 1 24.5 0.5)" fill="#FFFFFF" fill-opacity="0" />
        <g clip-path="url(#clip5_139)">
            <path id="Vector" d="M9 4L17 12L9 20" stroke="#FFFFFF" stroke-opacity="1.000000"
                stroke-width="2.000000" stroke-linejoin="round" stroke-linecap="round" />
        </g>
    </symbol>

</svg>